<mxfile host="65bd71144e">
    <diagram id="NOAmcCc6fkDQvaxrV_qR" name="ページ1">
        <mxGraphModel dx="1002" dy="563" grid="1" gridSize="10" guides="1" tooltips="1" connect="1" arrows="1" fold="1" page="1" pageScale="1" pageWidth="827" pageHeight="1169" math="0" shadow="0">
            <root>
                <mxCell id="0"/>
                <mxCell id="1" parent="0"/>
                <mxCell id="20" value="Pool" style="swimlane;childLayout=stackLayout;resizeParent=1;resizeParentMax=0;startSize=20;horizontal=0;horizontalStack=1;" vertex="1" parent="1">
                    <mxGeometry x="40" y="40" width="680" height="1120" as="geometry"/>
                </mxCell>
                <mxCell id="21" value="開発部" style="swimlane;startSize=20;" vertex="1" parent="20">
                    <mxGeometry x="20" width="220" height="1120" as="geometry"/>
                </mxCell>
                <mxCell id="27" style="edgeStyle=none;html=1;entryX=0.5;entryY=0;entryDx=0;entryDy=0;" edge="1" parent="21" source="2" target="26">
                    <mxGeometry relative="1" as="geometry"/>
                </mxCell>
                <mxCell id="2" value="ID作成ニーズ発生" style="rounded=1;whiteSpace=wrap;html=1;" vertex="1" parent="21">
                    <mxGeometry x="50" y="40" width="120" height="50" as="geometry"/>
                </mxCell>
                <mxCell id="29" value="" style="edgeStyle=none;html=1;" edge="1" parent="21" source="26" target="28">
                    <mxGeometry relative="1" as="geometry"/>
                </mxCell>
                <mxCell id="26" value="ID設計&lt;br&gt;=テストコード作成" style="rounded=1;whiteSpace=wrap;html=1;" vertex="1" parent="21">
                    <mxGeometry x="50" y="120" width="120" height="50" as="geometry"/>
                </mxCell>
                <mxCell id="46" style="edgeStyle=none;html=1;entryX=0.5;entryY=0;entryDx=0;entryDy=0;dashed=1;dashPattern=8 8;" edge="1" parent="21" source="28" target="45">
                    <mxGeometry relative="1" as="geometry"/>
                </mxCell>
                <mxCell id="28" value="ID作成依頼&lt;br&gt;=テストコード提出" style="whiteSpace=wrap;html=1;rounded=1;" vertex="1" parent="21">
                    <mxGeometry x="50" y="200" width="120" height="60" as="geometry"/>
                </mxCell>
                <mxCell id="45" value="結果確認" style="rounded=1;whiteSpace=wrap;html=1;" vertex="1" parent="21">
                    <mxGeometry x="50" y="720" width="120" height="60" as="geometry"/>
                </mxCell>
                <mxCell id="23" value="GitLab" style="swimlane;startSize=20;" vertex="1" parent="20">
                    <mxGeometry x="240" width="220" height="1120" as="geometry"/>
                </mxCell>
                <mxCell id="34" value="" style="edgeStyle=none;html=1;entryX=0.5;entryY=0;entryDx=0;entryDy=0;" edge="1" parent="23" source="31" target="35">
                    <mxGeometry relative="1" as="geometry">
                        <mxPoint x="60" y="310" as="targetPoint"/>
                    </mxGeometry>
                </mxCell>
                <mxCell id="31" value="" style="shape=datastore;whiteSpace=wrap;html=1;" vertex="1" parent="23">
                    <mxGeometry x="80" y="200" width="60" height="60" as="geometry"/>
                </mxCell>
                <mxCell id="39" style="edgeStyle=none;html=1;entryX=0.5;entryY=0;entryDx=0;entryDy=0;" edge="1" parent="23" source="35" target="38">
                    <mxGeometry relative="1" as="geometry"/>
                </mxCell>
                <mxCell id="35" value="テストコード&lt;br&gt;妥当性チェック" style="shape=process;whiteSpace=wrap;html=1;backgroundOutline=1;" vertex="1" parent="23">
                    <mxGeometry x="50" y="280" width="120" height="60" as="geometry"/>
                </mxCell>
                <mxCell id="43" style="edgeStyle=none;html=1;exitX=0.5;exitY=1;exitDx=0;exitDy=0;entryX=0.5;entryY=0;entryDx=0;entryDy=0;" edge="1" parent="23" source="38" target="42">
                    <mxGeometry relative="1" as="geometry"/>
                </mxCell>
                <mxCell id="38" value="" style="rhombus;whiteSpace=wrap;html=1;" vertex="1" parent="23">
                    <mxGeometry x="90" y="370" width="40" height="40" as="geometry"/>
                </mxCell>
                <mxCell id="42" value="エラー終了" style="shape=process;whiteSpace=wrap;html=1;backgroundOutline=1;" vertex="1" parent="23">
                    <mxGeometry x="50" y="440" width="120" height="60" as="geometry"/>
                </mxCell>
                <mxCell id="48" value="fail" style="text;html=1;align=center;verticalAlign=middle;resizable=0;points=[];autosize=1;strokeColor=none;fillColor=none;" vertex="1" parent="23">
                    <mxGeometry x="70" y="400" width="40" height="30" as="geometry"/>
                </mxCell>
                <mxCell id="50" value="ID作成指示" style="shape=process;whiteSpace=wrap;html=1;backgroundOutline=1;" vertex="1" parent="23">
                    <mxGeometry x="50" y="560" width="120" height="60" as="geometry"/>
                </mxCell>
                <mxCell id="49" style="edgeStyle=none;html=1;exitX=1;exitY=0.5;exitDx=0;exitDy=0;entryX=0.5;entryY=0;entryDx=0;entryDy=0;" edge="1" parent="23" source="38" target="50">
                    <mxGeometry relative="1" as="geometry">
                        <mxPoint x="70" y="540" as="targetPoint"/>
                        <Array as="points">
                            <mxPoint x="190" y="390"/>
                            <mxPoint x="190" y="520"/>
                            <mxPoint x="110" y="520"/>
                        </Array>
                    </mxGeometry>
                </mxCell>
                <mxCell id="51" value="pass" style="text;html=1;align=center;verticalAlign=middle;resizable=0;points=[];autosize=1;strokeColor=none;fillColor=none;" vertex="1" parent="23">
                    <mxGeometry x="130" y="360" width="50" height="30" as="geometry"/>
                </mxCell>
                <mxCell id="56" value="" style="shape=datastore;whiteSpace=wrap;html=1;" vertex="1" parent="23">
                    <mxGeometry x="80" y="670" width="60" height="60" as="geometry"/>
                </mxCell>
                <mxCell id="68" value="正常終了" style="shape=process;whiteSpace=wrap;html=1;backgroundOutline=1;" vertex="1" parent="23">
                    <mxGeometry x="50" y="980" width="120" height="60" as="geometry"/>
                </mxCell>
                <mxCell id="74" value="Merge Request" style="text;html=1;align=center;verticalAlign=middle;resizable=0;points=[];autosize=1;strokeColor=none;fillColor=none;" vertex="1" parent="23">
                    <mxGeometry x="-50" y="200" width="110" height="30" as="geometry"/>
                </mxCell>
                <mxCell id="24" value="ansible" style="swimlane;startSize=20;" vertex="1" parent="20">
                    <mxGeometry x="460" width="220" height="1120" as="geometry"/>
                </mxCell>
                <mxCell id="52" value="テストコード&lt;br&gt;取得" style="shape=process;whiteSpace=wrap;html=1;backgroundOutline=1;" vertex="1" parent="24">
                    <mxGeometry x="10" y="620" width="120" height="60" as="geometry"/>
                </mxCell>
                <mxCell id="62" style="edgeStyle=none;html=1;exitX=0.5;exitY=1;exitDx=0;exitDy=0;entryX=0.5;entryY=0;entryDx=0;entryDy=0;" edge="1" parent="24" source="60" target="55">
                    <mxGeometry relative="1" as="geometry"/>
                </mxCell>
                <mxCell id="60" value="playbook生成" style="shape=process;whiteSpace=wrap;html=1;backgroundOutline=1;" vertex="1" parent="24">
                    <mxGeometry x="10" y="720" width="120" height="60" as="geometry"/>
                </mxCell>
                <mxCell id="67" style="edgeStyle=none;html=1;exitX=0.5;exitY=1;exitDx=0;exitDy=0;entryX=0.5;entryY=0;entryDx=0;entryDy=0;" edge="1" parent="24" source="55" target="66">
                    <mxGeometry relative="1" as="geometry"/>
                </mxCell>
                <mxCell id="55" value="ID作成・設定&lt;br&gt;実行" style="shape=process;whiteSpace=wrap;html=1;backgroundOutline=1;" vertex="1" parent="24">
                    <mxGeometry x="10" y="820" width="120" height="60" as="geometry"/>
                </mxCell>
                <mxCell id="66" value="結果還元" style="shape=process;whiteSpace=wrap;html=1;backgroundOutline=1;" vertex="1" parent="24">
                    <mxGeometry x="10" y="920" width="120" height="60" as="geometry"/>
                </mxCell>
                <mxCell id="58" style="edgeStyle=none;html=1;exitX=0.5;exitY=1;exitDx=0;exitDy=0;" edge="1" parent="24" source="52" target="60">
                    <mxGeometry relative="1" as="geometry">
                        <mxPoint x="-90" y="720" as="targetPoint"/>
                    </mxGeometry>
                </mxCell>
                <mxCell id="30" style="edgeStyle=none;html=1;" edge="1" parent="20" source="28" target="31">
                    <mxGeometry relative="1" as="geometry">
                        <mxPoint x="220" y="250" as="targetPoint"/>
                    </mxGeometry>
                </mxCell>
                <mxCell id="47" style="edgeStyle=none;html=1;exitX=1;exitY=0.5;exitDx=0;exitDy=0;entryX=0;entryY=0.75;entryDx=0;entryDy=0;" edge="1" parent="20" source="45" target="42">
                    <mxGeometry relative="1" as="geometry"/>
                </mxCell>
                <mxCell id="57" style="edgeStyle=none;html=1;entryX=1;entryY=0.5;entryDx=0;entryDy=0;exitX=0;exitY=0.5;exitDx=0;exitDy=0;" edge="1" parent="20" source="52" target="56">
                    <mxGeometry relative="1" as="geometry"/>
                </mxCell>
                <mxCell id="69" style="edgeStyle=none;html=1;exitX=0;exitY=0.5;exitDx=0;exitDy=0;entryX=0.5;entryY=0;entryDx=0;entryDy=0;" edge="1" parent="20" source="66" target="68">
                    <mxGeometry relative="1" as="geometry">
                        <Array as="points">
                            <mxPoint x="350" y="950"/>
                        </Array>
                    </mxGeometry>
                </mxCell>
                <mxCell id="70" style="edgeStyle=none;html=1;exitX=1;exitY=0.5;exitDx=0;exitDy=0;entryX=0;entryY=0.5;entryDx=0;entryDy=0;" edge="1" parent="20" source="45" target="68">
                    <mxGeometry relative="1" as="geometry"/>
                </mxCell>
                <mxCell id="73" style="edgeStyle=none;html=1;exitX=1;exitY=0.5;exitDx=0;exitDy=0;entryX=0.5;entryY=0;entryDx=0;entryDy=0;" edge="1" parent="20" source="50" target="52">
                    <mxGeometry relative="1" as="geometry">
                        <Array as="points">
                            <mxPoint x="530" y="590"/>
                        </Array>
                    </mxGeometry>
                </mxCell>
                <mxCell id="71" value="業務システム" style="shape=cube;whiteSpace=wrap;html=1;boundedLbl=1;backgroundOutline=1;darkOpacity=0.05;darkOpacity2=0.1;" vertex="1" parent="1">
                    <mxGeometry x="660" y="920" width="120" height="80" as="geometry"/>
                </mxCell>
                <mxCell id="72" style="edgeStyle=none;html=1;exitX=1;exitY=0.5;exitDx=0;exitDy=0;entryX=0.29;entryY=-0.01;entryDx=0;entryDy=0;entryPerimeter=0;" edge="1" parent="1" source="55" target="71">
                    <mxGeometry relative="1" as="geometry"/>
                </mxCell>
            </root>
        </mxGraphModel>
    </diagram>
</mxfile>